<?xml version="1.0" encoding="UTF-8"?>
<svg id="Livello_2" data-name="Livello 2" xmlns="http://www.w3.org/2000/svg" viewBox="0 0 226.77 298.9">
  <defs>
    <style>
      .cls-1 {
        fill: #80c46d;
      }

      .cls-2 {
        fill: #6b9e56;
      }

      .cls-3 {
        fill: #9e731b;
      }

      .cls-4 {
        fill: #a5e094;
      }

      .cls-5 {
        fill: #71b25f;
      }

      .cls-6 {
        fill: #896530;
      }
    </style>
  </defs>
  <g id="Livello_3" data-name="Livello 3">
    <g>
      <g>
        <g>
          <path class="cls-4" d="m205.55,33.14c1.19-2.23.4-5.02-1.8-6.29s-5.01-.56-6.35,1.58h0s-4.29,7.43-4.29,7.43l8.16,4.71,4.29-7.43h0Z"/>
          <path class="cls-4" d="m215.04,43.42c1.75-1.83,1.74-4.72-.03-6.54s-4.67-1.9-6.54-.2h0s-6.14,5.99-6.14,5.99l6.58,6.75,6.14-5.99h0Z"/>
          <path class="cls-4" d="m222.48,74.73c2.52-.22,4.43-2.4,4.29-4.94s-2.26-4.51-4.78-4.46h0s-8.57.45-8.57.45l.49,9.41,8.57-.45h0Z"/>
          <path class="cls-4" d="m206.15,120.31c2.23,1.19,5.02.4,6.29-1.8s.56-5.01-1.58-6.35h0s-7.43-4.29-7.43-4.29l-4.71,8.16,7.43,4.29h0Z"/>
          <path class="cls-4" d="m194.58,132.55c1.86,1.71,4.75,1.66,6.54-.15s1.81-4.7.08-6.54h0s-6.1-6.04-6.1-6.04l-6.63,6.7,6.1,6.04h0Z"/>
          <path class="cls-4" d="m152.58,34.19c-1.35-2.13-4.16-2.83-6.36-1.54s-2.96,4.08-1.76,6.3h0s4.34,7.4,4.34,7.4l8.13-4.77-4.34-7.4h0Z"/>
          <path class="cls-4" d="m140.98,41.53c-1.77-1.81-4.66-1.9-6.54-.18s-2.05,4.61-.41,6.53h0s5.79,6.34,5.79,6.34l6.96-6.35-5.79-6.34h0Z"/>
          <path class="cls-4" d="m166.42,30.5c-.42-2.49-2.73-4.23-5.26-3.89s-4.32,2.6-4.08,5.12h0s1.12,8.51,1.12,8.51l9.34-1.23-1.12-8.51h0Z"/>
          <path class="cls-4" d="m16.05,2.25c-1.77-1.81-4.66-1.9-6.54-.18s-2.05,4.61-.41,6.53h0s5.79,6.34,5.79,6.34l6.96-6.35-5.79-6.34h0Z"/>
          <path class="cls-4" d="m6.73,12.65c-2.28-1.08-5.03-.17-6.2,2.09s-.33,5.03,1.87,6.27h0s7.62,3.95,7.62,3.95l4.33-8.37-7.62-3.94h0Z"/>
          <path class="cls-4" d="m109.02,73.13c2.51-.26,4.39-2.46,4.22-5s-2.33-4.47-4.85-4.39h0s-8.56.57-8.56.57l.63,9.4,8.56-.58h0Z"/>
          <path class="cls-4" d="m2.96,77.37c-2.12,1.37-2.8,4.18-1.5,6.37s4.1,2.94,6.31,1.72h0s7.38-4.38,7.38-4.38l-4.82-8.1-7.38,4.39h0Z"/>
          <path class="cls-4" d="m94.76,24.32c2.09-1.42,2.69-4.26,1.32-6.41s-4.18-2.82-6.36-1.55h0s-7.25,4.59-7.25,4.59l5.04,7.96,7.25-4.59h0Z"/>
          <path class="cls-4" d="m45.23,142.92c-2.52-.23-4.78,1.58-5.09,4.11s1.43,4.83,3.92,5.24h0s8.52,1.07,8.52,1.07l1.17-9.35-8.52-1.07h0Z"/>
          <path class="cls-4" d="m17.66,96.57c-1.77,1.8-1.81,4.69-.06,6.54s4.64,1.96,6.54.29h0s6.23-5.9,6.23-5.9l-6.48-6.84-6.23,5.9h0Z"/>
          <path class="cls-4" d="m42.31,167.57c-2.45.62-3.99,3.07-3.45,5.56s2.95,4.09,5.44,3.64h0s8.39-1.81,8.39-1.81l-1.99-9.21-8.39,1.81h0Z"/>
          <path class="cls-4" d="m178.22,172.26c2.52-.18,4.46-2.33,4.37-4.87s-2.19-4.54-4.71-4.54h0s-8.58.31-8.58.31l.35,9.42,8.58-.32h0Z"/>
        </g>
        <path class="cls-1" d="m197.2,37.56c-20.68-11.94-50.33.72-66.24,28.27-4.57,7.92-7.5,16.21-8.88,24.28-3.53-.64-7.17-1-10.89-1-3.98,0-7.87.4-11.64,1.13.54-3.12.94-6.45,1.15-9.99.28-4.87.16-9.38-.19-13.43.27-9.66-1.7-19.95-6.18-29.89C81.27,7.93,51.89-7.13,28.7,3.31,5.51,13.75-2.71,45.73,10.35,74.74c3.89,8.65,9.25,16.05,15.45,21.91,2.46,3.06,5.36,6.29,8.77,9.49,8.18,7.69,16.38,12.56,22.93,15.66-4,7.72-6.39,16.41-6.71,25.63h-.05v110.12h120.9v-110.12h-.05c-.09-2.72-.37-5.4-.81-8.01,13.33-4.51,26.28-15.16,35.06-30.35,15.91-27.55,12.04-59.56-8.64-71.5Z"/>
        <path class="cls-5" d="m124.81,197.77c32.12-63.98.41-106.21-2.25-107.48,4.27,1.25,10.4,2.08,16.68,5.58,4.67,2.6,12.12,7.17,17.43,13.81,0,0,9.4,10.24,13.32,26.34,1.12,4.59,1.48,9.07,1.48,9.07.14,1.79.18,3.29.18,4.35v50.25c-15.61-.64-31.22-1.28-46.83-1.92"/>
        <path class="cls-5" d="m99.55,90.25c-3.45.88-7.76,2.31-12.43,4.72-5.08,2.62-9.01,5.57-11.83,8.05,1.39-2.1-.8,2.23,0,0C96.82,43.1,67.93,14.93,51.56.64c.33.06.82.15,1.41.27,1.12.23,5.86,1.27,11.44,3.96,1.42.69,6.61,3.28,12.46,8.3,1.54,1.33,6.99,6.14,12.19,14.08,7.32,11.18,9.49,21.46,9.98,23.93.86,4.37,1.1,8.09,1.5,14.48.25,3.87.49,7.83.25,13.06-.22,4.76-.75,8.71-1.22,11.53Z"/>
        <path class="cls-2" d="m158.04,111.34c2.16,2.8,4.48,6.27,6.61,10.44,3.41,6.67,5.17,12.86,6.12,17.64.92-.32,2.2-.78,3.7-1.41,1.47-.62,7.23-3.13,13.77-8.3,1.82-1.44,8.1-6.56,14.14-15.2,6.61-9.46,9.4-18.09,10.36-21.34,1.17-3.97,3.16-10.95,2.87-20.23-.13-4.04-.4-10.73-3.79-18.43-1.4-3.18-2.94-5.66-4.15-7.39-.13.85-.33,2.14-.61,3.7-3.2,17.99-5.94,33.4-17.51,44.51-8.99,8.64-20,11.49-22.99,12.23-4.18,1.04-7.81,1.38-10.43,1.49.63.76,1.27,1.53,1.9,2.29Z"/>
      </g>
      <path class="cls-3" d="m28.31,200.44l35.05,97.28c.26.71.93,1.18,1.68,1.18h94.6c.78,0,1.46-.5,1.7-1.24l31.53-97.75c.37-1.16-.49-2.34-1.71-2.34l-161.18.47c-1.24,0-2.1,1.23-1.68,2.39Z"/>
      <path class="cls-6" d="m139.84,298.9h19.81c.78,0,1.46-.5,1.7-1.24l31.53-97.75c.37-1.16-.49-2.34-1.71-2.34l-28.86.08"/>
    </g>
  </g>
</svg>