<?xml version="1.0" encoding="UTF-8"?>
<svg id="Livello_2" data-name="Livello 2" xmlns="http://www.w3.org/2000/svg" viewBox="0 0 113.93 269.48">
  <defs>
    <style>
      .cls-1 {
        opacity: .1;
      }

      .cls-2 {
        fill: #f3eae5;
      }

      .cls-3 {
        fill: #c67944;
      }

      .cls-4 {
        fill: #4c2b15;
      }

      .cls-5 {
        stroke: #f4ae72;
      }

      .cls-5, .cls-6 {
        fill: none;
        stroke-linecap: round;
        stroke-miterlimit: 10;
        stroke-width: 9px;
      }

      .cls-6 {
        stroke: #efbb97;
      }
    </style>
  </defs>
  <g id="Livello_5" data-name="Livello 5">
    <g>
      <g>
        <line class="cls-5" x1="38.13" y1="4.5" x2="47.08" y2="84.09"/>
        <line class="cls-6" x1="78.31" y1="12.44" x2="64.12" y2="91.27"/>
        <g>
          <path class="cls-3" d="m113.57,135.73c-.37-15.78-12.08-28.76-27.3-31.09-.47-.09-1.13-.26-1.85-.61-2.27-1.09-3.38-3.02-3.94-4.02-2.13-3.83-1.53-7.8-1.14-10.41.48-3.21,1.5-4.86,2.1-5.69.48-.66.96-1.16,1.31-1.49H30.75c.35.33.83.82,1.31,1.49.6.83,1.62,2.48,2.1,5.69.39,2.61.99,6.58-1.14,10.41-.56,1.01-1.67,2.94-3.94,4.02-.74.35-1.41.53-1.88.62,0,0,.01,0,.02.01C12.05,107.03.39,119.98.02,135.73H0v129.45c0,2.3,1.87,4.17,4.17,4.17h105.26c2.3,0,4.17-1.87,4.17-4.17v-129.45h-.02Z"/>
          <g>
            <circle class="cls-3" cx="36.05" cy="74.88" r="9.22"/>
            <circle class="cls-3" cx="36.86" cy="74.88" r="9.22"/>
            <circle class="cls-3" cx="37.68" cy="74.88" r="9.22"/>
            <circle class="cls-3" cx="38.49" cy="74.88" r="9.22"/>
            <circle class="cls-3" cx="39.3" cy="74.88" r="9.22"/>
            <circle class="cls-3" cx="40.11" cy="74.88" r="9.22"/>
            <circle class="cls-3" cx="40.92" cy="74.88" r="9.22"/>
            <circle class="cls-3" cx="41.73" cy="74.88" r="9.22"/>
            <circle class="cls-3" cx="42.54" cy="74.88" r="9.22"/>
            <circle class="cls-3" cx="43.35" cy="74.88" r="9.22"/>
            <circle class="cls-3" cx="44.17" cy="74.88" r="9.22"/>
            <circle class="cls-3" cx="44.98" cy="74.88" r="9.22"/>
            <circle class="cls-3" cx="45.79" cy="74.88" r="9.22"/>
            <circle class="cls-3" cx="46.6" cy="74.88" r="9.22"/>
            <circle class="cls-3" cx="47.41" cy="74.88" r="9.22"/>
            <circle class="cls-3" cx="48.22" cy="74.88" r="9.22"/>
            <circle class="cls-3" cx="49.03" cy="74.88" r="9.22"/>
            <circle class="cls-3" cx="49.85" cy="74.88" r="9.22"/>
            <circle class="cls-3" cx="50.66" cy="74.88" r="9.22"/>
            <circle class="cls-3" cx="51.47" cy="74.88" r="9.22"/>
            <circle class="cls-3" cx="52.28" cy="74.88" r="9.22"/>
            <circle class="cls-3" cx="53.09" cy="74.88" r="9.22"/>
            <circle class="cls-3" cx="53.9" cy="74.88" r="9.22"/>
            <circle class="cls-3" cx="54.71" cy="74.88" r="9.22"/>
            <circle class="cls-3" cx="55.53" cy="74.88" r="9.22"/>
            <circle class="cls-3" cx="56.34" cy="74.88" r="9.22"/>
            <circle class="cls-3" cx="57.15" cy="74.88" r="9.22"/>
            <circle class="cls-3" cx="57.96" cy="74.88" r="9.22"/>
            <circle class="cls-3" cx="58.77" cy="74.88" r="9.22"/>
            <circle class="cls-3" cx="59.58" cy="74.88" r="9.22"/>
            <circle class="cls-3" cx="60.39" cy="74.88" r="9.22"/>
            <circle class="cls-3" cx="61.2" cy="74.88" r="9.22"/>
            <circle class="cls-3" cx="62.02" cy="74.88" r="9.22"/>
            <circle class="cls-3" cx="62.83" cy="74.88" r="9.22"/>
            <circle class="cls-3" cx="63.64" cy="74.88" r="9.22"/>
            <circle class="cls-3" cx="64.45" cy="74.88" r="9.22"/>
            <circle class="cls-3" cx="65.26" cy="74.88" r="9.22"/>
            <circle class="cls-3" cx="66.07" cy="74.88" r="9.22"/>
            <circle class="cls-3" cx="66.88" cy="74.88" r="9.22"/>
            <circle class="cls-3" cx="67.7" cy="74.88" r="9.22"/>
            <circle class="cls-3" cx="68.51" cy="74.88" r="9.22"/>
            <circle class="cls-3" cx="69.32" cy="74.88" r="9.22"/>
            <circle class="cls-3" cx="70.13" cy="74.88" r="9.22"/>
            <circle class="cls-3" cx="70.94" cy="74.88" r="9.22"/>
            <circle class="cls-3" cx="71.75" cy="74.88" r="9.22"/>
            <circle class="cls-3" cx="72.56" cy="74.88" r="9.22"/>
            <circle class="cls-3" cx="73.38" cy="74.88" r="9.22"/>
            <circle class="cls-3" cx="74.19" cy="74.88" r="9.22"/>
            <circle class="cls-3" cx="75" cy="74.88" r="9.22"/>
            <circle class="cls-3" cx="75.81" cy="74.88" r="9.22"/>
            <circle class="cls-3" cx="76.62" cy="74.88" r="9.22"/>
            <circle class="cls-3" cx="77.43" cy="74.88" r="9.22"/>
          </g>
        </g>
        <line class="cls-5" x1="38.13" y1="4.5" x2="65.44" y2="247.33"/>
        <line class="cls-6" x1="78.31" y1="12.44" x2="34.41" y2="256.24"/>
        <rect class="cls-2" y="143.82" width="113.59" height="81.57"/>
        <path class="cls-1" d="m85.68,104.72c12.7,1.22,27.22,12.48,27.89,31.01,1.04,28.48-.54,94.92-.05,130.16.04,2.76-3.39,3.65-4.78,3.45H4.17c20.69,1.31,71.86-6.35,87.35-51.3,2.3-7.97,3.18-12.27,3.39-19.62.71-24.05.14-30.7.07-54.34.09-1.28.11.4-.21-10.85,0-10.56-3.2-23.7-9.1-28.52Z"/>
      </g>
      <g>
        <path class="cls-4" d="m28.8,176.54c0,3.06-.87,4.18-3.63,4.18s-3.67-1.12-3.67-4.18v-6.27c0-3.06.91-4.18,3.67-4.18s3.63,1.12,3.63,4.18v.57c0,.55-.15.7-.7.7h-1.22c-.55,0-.7-.15-.7-.7v-1.03c0-.76-.32-1.06-.99-1.06s-.99.3-.99,1.06v7.18c0,.76.32,1.06.99,1.06s.99-.3.99-1.06v-1.03c0-.55.15-.7.7-.7h1.22c.55,0,.7.15.7.7v.57Z"/>
        <path class="cls-4" d="m33.72,175.38c-.1-.27-.17-.34-.46-.34h-.08c-.27,0-.34.08-.34.34v4.45c0,.55-.15.7-.7.7h-1.22c-.55,0-.7-.15-.7-.7v-12.84c0-.55.15-.7.7-.7h2.51c2.89,0,4.2.99,4.2,3.42v1.37c0,1.79-.28,2.47-1.29,3.32-.11.08-.13.11-.13.21,0,.06.02.11.06.25l1.67,4.96c.17.49-.02.72-.51.72h-1.39c-.53,0-.65-.08-.8-.53l-1.52-4.62Zm-.87-3.27c0,.27.08.34.34.34h.4c.89,0,1.35-.4,1.35-1.31v-1.04c0-.89-.42-1.25-1.35-1.25h-.4c-.27,0-.34.08-.34.34v2.93Z"/>
        <path class="cls-4" d="m41.81,171.41c0,.25.08.34.34.34h2.36c.55,0,.7.15.7.7v1.25c0,.55-.15.7-.66.7h-2.39c-.27,0-.34.08-.34.34v2.77c0,.25.08.34.34.34h2.58c.55,0,.7.15.7.7v1.25c0,.55-.15.7-.7.7h-4.84c-.55,0-.7-.15-.7-.7v-12.84c0-.55.15-.7.7-.7h4.84c.55,0,.7.15.7.7v1.25c0,.55-.15.7-.7.7h-2.58c-.27,0-.34.08-.34.34v2.13Z"/>
        <path class="cls-4" d="m51.48,166.28c.85,0,1.12.29,1.22.99l1.67,12.56c.08.55-.08.7-.63.7h-1.31c-.57,0-.7-.13-.78-.7l-.25-2.07c-.02-.19-.08-.25-.3-.25h-1.63c-.23,0-.29.06-.3.25l-.25,2.07c-.08.57-.21.7-.78.7h-1.31c-.55,0-.7-.15-.63-.7l1.67-12.56c.09-.7.36-.99,1.22-.99h2.39Zm-1.2,3.61c-.21,0-.32.04-.34.27l-.44,4.43c-.02.23.04.29.28.29h.99c.25,0,.3-.06.28-.29l-.44-4.43c-.02-.23-.13-.27-.34-.27Z"/>
        <path class="cls-4" d="m59.22,168.94c-.27,0-.34.08-.34.34v10.54c0,.55-.15.7-.7.7h-1.22c-.55,0-.7-.15-.7-.7v-10.54c0-.27-.08-.34-.34-.34h-1.18c-.55,0-.7-.15-.7-.7v-1.25c0-.55.15-.7.7-.7h5.66c.55,0,.7.15.7.7v1.25c0,.55-.15.7-.7.7h-1.18Z"/>
        <path class="cls-4" d="m64.46,179.83c0,.55-.15.7-.7.7h-1.22c-.55,0-.7-.15-.7-.7v-12.84c0-.55.15-.7.7-.7h1.22c.55,0,.7.15.7.7v12.84Z"/>
        <path class="cls-4" d="m68.4,180.53c-.99,0-1.27-.29-1.39-1.18l-1.46-12.37c-.06-.55.15-.7.7-.7h1.39c.55,0,.67.15.7.7l.84,9.75c.02.23.1.28.27.28s.25-.06.27-.28l.84-9.75c.04-.55.15-.7.7-.7h1.39c.55,0,.76.15.7.7l-1.46,12.37c-.11.89-.4,1.18-1.39,1.18h-2.09Z"/>
        <path class="cls-4" d="m77.04,179.83c0,.55-.15.7-.7.7h-1.22c-.55,0-.7-.15-.7-.7v-12.84c0-.55.15-.7.7-.7h1.22c.55,0,.7.15.7.7v12.84Z"/>
        <path class="cls-4" d="m83.01,168.94c-.27,0-.34.08-.34.34v10.54c0,.55-.15.7-.7.7h-1.22c-.55,0-.7-.15-.7-.7v-10.54c0-.27-.08-.34-.34-.34h-1.18c-.55,0-.7-.15-.7-.7v-1.25c0-.55.15-.7.7-.7h5.66c.55,0,.7.15.7.7v1.25c0,.55-.15.7-.7.7h-1.18Z"/>
        <path class="cls-4" d="m89.67,171.28l.84-4.29c.11-.55.3-.7.82-.7h1.46c.55,0,.7.23.55.7l-2.45,8.15c-.1.34-.11.46-.11,1.01v3.69c0,.55-.15.7-.7.7h-1.18c-.55,0-.7-.15-.7-.7v-3.69c0-.55-.02-.67-.11-1.01l-2.45-8.15c-.15-.48,0-.7.55-.7h1.46c.51,0,.7.15.82.7l.84,4.29c.04.19.08.23.19.23s.15-.04.19-.23Z"/>
        <path class="cls-4" d="m13.03,202.63c0,.55-.15.7-.7.7h-1.22c-.55,0-.7-.15-.7-.7v-12.84c0-.55.15-.7.7-.7h1.22c.55,0,.7.15.7.7v12.84Z"/>
        <path class="cls-4" d="m20.23,196.36c1.27,1.14,1.56,1.82,1.56,3.1v.34c0,2.39-.91,3.72-3.67,3.72s-3.67-1.12-3.67-4.18v-.38c0-.55.15-.7.7-.7h1.29c.55,0,.7.15.7.7v.84c0,.76.3,1.06.97,1.06s.97-.28.97-.97v-.36c0-.53-.11-.8-.82-1.42l-2.28-2.03c-1.27-1.12-1.54-1.77-1.54-3.04v-.42c0-2.39.91-3.72,3.67-3.72s3.67,1.12,3.67,4.18v.38c0,.55-.15.7-.7.7h-1.29c-.55,0-.7-.15-.7-.7v-.84c0-.76-.3-1.06-.97-1.06s-.97.29-.97.97v.32c0,.55.11.82.65,1.31l2.43,2.2Z"/>
        <path class="cls-4" d="m31.17,189.08c.85,0,1.12.29,1.22.99l1.67,12.56c.08.55-.08.7-.63.7h-1.31c-.57,0-.7-.13-.78-.7l-.25-2.07c-.02-.19-.08-.25-.3-.25h-1.63c-.23,0-.29.06-.3.25l-.25,2.07c-.08.57-.21.7-.78.7h-1.31c-.55,0-.7-.15-.63-.7l1.67-12.56c.09-.7.36-.99,1.22-.99h2.39Zm-1.2,3.61c-.21,0-.32.04-.34.27l-.44,4.43c-.02.23.04.29.28.29h.99c.25,0,.3-.06.28-.29l-.44-4.43c-.02-.23-.13-.27-.34-.27Z"/>
        <path class="cls-4" d="m40.35,189.78c0-.55.15-.7.7-.7h1.06c.55,0,.7.15.7.7v12.84c0,.55-.15.7-.7.7h-.87c-.59,0-.76-.13-.95-.65l-2.38-6.29c-.06-.13-.11-.17-.19-.17-.09,0-.13.04-.13.21v6.19c0,.55-.15.7-.7.7h-1.04c-.55,0-.7-.15-.7-.7v-12.84c0-.55.15-.7.7-.7h.85c.55,0,.74.06.91.49l2.41,6.44c.06.13.11.17.19.17.09,0,.13-.04.13-.21v-6.19Z"/>
        <path class="cls-4" d="m50.59,194.21c0,.25.08.34.34.34h2.36c.55,0,.7.15.7.7v1.25c0,.55-.15.7-.66.7h-2.39c-.27,0-.34.08-.34.34v2.77c0,.25.08.34.34.34h2.58c.55,0,.7.15.7.7v1.25c0,.55-.15.7-.7.7h-4.84c-.55,0-.7-.15-.7-.7v-12.84c0-.55.15-.7.7-.7h4.84c.55,0,.7.15.7.7v1.25c0,.55-.15.7-.7.7h-2.58c-.27,0-.34.08-.34.34v2.13Z"/>
        <path class="cls-4" d="m60.91,196.36c1.27,1.14,1.56,1.82,1.56,3.1v.34c0,2.39-.91,3.72-3.67,3.72s-3.67-1.12-3.67-4.18v-.38c0-.55.15-.7.7-.7h1.29c.55,0,.7.15.7.7v.84c0,.76.3,1.06.97,1.06s.97-.28.97-.97v-.36c0-.53-.11-.8-.82-1.42l-2.28-2.03c-1.27-1.12-1.54-1.77-1.54-3.04v-.42c0-2.39.91-3.72,3.67-3.72s3.67,1.12,3.67,4.18v.38c0,.55-.15.7-.7.7h-1.29c-.55,0-.7-.15-.7-.7v-.84c0-.76-.3-1.06-.97-1.06s-.97.29-.97.97v.32c0,.55.11.82.65,1.31l2.43,2.2Z"/>
        <path class="cls-4" d="m69.27,196.36c1.27,1.14,1.56,1.82,1.56,3.1v.34c0,2.39-.91,3.72-3.67,3.72s-3.67-1.12-3.67-4.18v-.38c0-.55.15-.7.7-.7h1.29c.55,0,.7.15.7.7v.84c0,.76.3,1.06.97,1.06s.97-.28.97-.97v-.36c0-.53-.11-.8-.82-1.42l-2.28-2.03c-1.27-1.12-1.54-1.77-1.54-3.04v-.42c0-2.39.91-3.72,3.67-3.72s3.67,1.12,3.67,4.18v.38c0,.55-.15.7-.7.7h-1.29c-.55,0-.7-.15-.7-.7v-.84c0-.76-.3-1.06-.97-1.06s-.97.29-.97.97v.32c0,.55.11.82.65,1.31l2.43,2.2Z"/>
        <path class="cls-4" d="m74.87,194.21c0,.25.08.34.34.34h2.36c.55,0,.7.15.7.7v1.25c0,.55-.15.7-.66.7h-2.39c-.27,0-.34.08-.34.34v2.77c0,.25.08.34.34.34h2.58c.55,0,.7.15.7.7v1.25c0,.55-.15.7-.7.7h-4.84c-.55,0-.7-.15-.7-.7v-12.84c0-.55.15-.7.7-.7h4.84c.55,0,.7.15.7.7v1.25c0,.55-.15.7-.7.7h-2.58c-.27,0-.34.08-.34.34v2.13Z"/>
        <path class="cls-4" d="m85.11,189.78c0-.55.15-.7.7-.7h1.06c.55,0,.7.15.7.7v12.84c0,.55-.15.7-.7.7h-.87c-.59,0-.76-.13-.95-.65l-2.38-6.29c-.06-.13-.11-.17-.19-.17-.09,0-.13.04-.13.21v6.19c0,.55-.15.7-.7.7h-1.04c-.55,0-.7-.15-.7-.7v-12.84c0-.55.15-.7.7-.7h.85c.55,0,.74.06.91.49l2.41,6.44c.06.13.11.17.19.17.09,0,.13-.04.13-.21v-6.19Z"/>
        <path class="cls-4" d="m96.61,199.34c0,3.06-.87,4.18-3.63,4.18s-3.67-1.12-3.67-4.18v-6.27c0-3.06.91-4.18,3.67-4.18s3.63,1.12,3.63,4.18v.57c0,.55-.15.7-.7.7h-1.22c-.55,0-.7-.15-.7-.7v-1.03c0-.76-.32-1.06-.99-1.06s-.99.3-.99,1.06v7.18c0,.76.32,1.06.99,1.06s.99-.3.99-1.06v-1.03c0-.55.15-.7.7-.7h1.22c.55,0,.7.15.7.7v.57Z"/>
        <path class="cls-4" d="m100.66,194.21c0,.25.08.34.34.34h2.36c.55,0,.7.15.7.7v1.25c0,.55-.15.7-.66.7h-2.39c-.27,0-.34.08-.34.34v2.77c0,.25.08.34.34.34h2.58c.55,0,.7.15.7.7v1.25c0,.55-.15.7-.7.7h-4.84c-.55,0-.7-.15-.7-.7v-12.84c0-.55.15-.7.7-.7h4.84c.55,0,.7.15.7.7v1.25c0,.55-.15.7-.7.7h-2.58c-.27,0-.34.08-.34.34v2.13Z"/>
      </g>
    </g>
  </g>
</svg>