<?xml version="1.0" encoding="utf-8"?>
<!-- Generator: Adobe Illustrator 25.1.0, SVG Export Plug-In . SVG Version: 6.00 Build 0)  -->
<svg version="1.1" id="Livello_2" xmlns="http://www.w3.org/2000/svg" xmlns:xlink="http://www.w3.org/1999/xlink" x="0px" y="0px"
	 viewBox="0 0 329 329" style="enable-background:new 0 0 329 329;" xml:space="preserve">
<style type="text/css">
	.st0{fill:#FFFFFF;}
</style>
<path class="st0" d="M164.5,329L164.5,329C73.6,329,0,255.3,0,164.5v0C0,73.6,73.6,0,164.5,0h0C255.3,0,329,73.6,329,164.5v0
	C329,255.3,255.3,329,164.5,329z"/>
<g id="Livello_5">
	<g>
		<path d="M282.1,48.2l-0.9,0.4c0.1,0.2,0.3,0.3,0.5,0.5L282.1,48.2z"/>
		<path d="M48.2,46.8l0.4,0.9c0.2-0.2,0.3-0.3,0.5-0.5L48.2,46.8L48.2,46.8z"/>
		<path d="M280.8,282.1l-0.4-0.9c-0.1,0.1-0.3,0.3-0.5,0.5L280.8,282.1L280.8,282.1z"/>
		<path d="M46.8,280.8l0.9-0.4c-0.2-0.1-0.3-0.3-0.5-0.5L46.8,280.8L46.8,280.8z"/>
		<path d="M48.6,47.7C29.5,66.8,15,90.5,7,117c6.5,13.7,16.5,25.3,29,33.6l52.3-18.2L48.6,47.7z"/>
		<path d="M151.6,37.5C143.2,24.3,131.2,13.7,117,7c-25.9,7.8-49.1,21.8-67.9,40.3l84.2,40.6L151.6,37.5L151.6,37.5z"/>
		<path d="M291.5,151.6c13.2-8.4,23.8-20.4,30.5-34.6c-7.8-25.9-21.8-49.1-40.3-67.9l-40.6,84.2L291.5,151.6L291.5,151.6z"/>
		<path d="M281.2,48.6C262.2,29.5,238.5,15,212,7c-13.7,6.4-25.3,16.5-33.6,29l18.2,52.3C196.6,88.3,281.2,48.6,281.2,48.6z"/>
		<path d="M37.5,177.4C24.3,185.8,13.7,197.8,7,212c7.8,25.9,21.8,49.1,40.3,67.9l40.6-84.2L37.5,177.4L37.5,177.4z"/>
		<path d="M47.7,280.3c19,19.2,42.8,33.7,69.3,41.7c13.7-6.5,25.3-16.5,33.6-29l-18.2-52.3C132.4,240.7,47.7,280.3,47.7,280.3z"/>
		<path d="M280.3,281.2c19.2-19,33.7-42.8,41.7-69.3c-6.5-13.7-16.5-25.3-29-33.6l-52.3,18.2L280.3,281.2z"/>
		<path d="M177.4,291.5c8.4,13.2,20.4,23.8,34.6,30.5c25.9-7.8,49.1-21.8,67.9-40.3l-84.2-40.6L177.4,291.5L177.4,291.5z"/>
		<path d="M178.3,36L165.8,0c-0.2,0-0.4,0-0.6,0l-13.6,37.5c8.1,12.8,12.9,28,12.9,44.3C164.5,64.9,169.6,49.1,178.3,36L178.3,36z"
			/>
		<path d="M36,150.6L0,163.2c0,0.2,0,0.4,0,0.6l37.5,13.6c12.8-8.1,28-12.9,44.3-12.9C64.9,164.5,49.1,159.4,36,150.6L36,150.6z"/>
		<path d="M164.5,81.8c0,45.7-37,82.7-82.7,82.7c45.7,0,82.7,37,82.7,82.7c0-45.7,37-82.7,82.7-82.7
			C201.5,164.5,164.5,127.5,164.5,81.8z"/>
		<path d="M329,165.1l-37.5-13.6c-12.8,8.1-28,12.9-44.3,12.9c16.9,0,32.7,5.1,45.8,13.9l36-12.5C329,165.6,329,165.4,329,165.1z"/>
		<path d="M150.6,293l12.5,36c0.2,0,0.4,0,0.6,0l13.6-37.5c-8.1-12.8-12.9-28-12.9-44.3C164.5,264.1,159.4,279.9,150.6,293z"/>
	</g>
</g>
</svg>
